<?xml version="1.0" encoding="windows-1252" standalone="no"?>
<svg xmlns="http://www.w3.org/2000/svg" xmlns:xlink="http://www.w3.org/1999/xlink" contentStyleType="text/css" height="610px" preserveAspectRatio="none" style="width:219px;height:610px;background:#FFFFFF;" version="1.1" viewBox="0 0 219 610" width="219px" zoomAndPan="magnify"><defs/><g><ellipse cx="109.5" cy="20" fill="#222222" rx="10" ry="10" style="stroke:#222222;stroke-width:1.0;"/><rect fill="#F1F1F1" height="33.9688" rx="12.5" ry="12.5" style="stroke:#181818;stroke-width:0.5;" width="137" x="41" y="50"/><text fill="#000000" font-family="sans-serif" font-size="12" lengthAdjust="spacing" textLength="117" x="51" y="71.1387">Read specifications</text><rect fill="#F1F1F1" height="33.9688" rx="12.5" ry="12.5" style="stroke:#181818;stroke-width:0.5;" width="197" x="11" y="103.9688"/><text fill="#000000" font-family="sans-serif" font-size="12" lengthAdjust="spacing" textLength="177" x="21" y="125.1074">Generate interface document</text><rect fill="#F1F1F1" height="33.9688" rx="12.5" ry="12.5" style="stroke:#181818;stroke-width:0.5;" width="135" x="42" y="157.9375"/><text fill="#000000" font-family="sans-serif" font-size="12" lengthAdjust="spacing" textLength="115" x="52" y="179.0762">Generate unit tests</text><rect fill="#F1F1F1" height="33.9688" rx="12.5" ry="12.5" style="stroke:#181818;stroke-width:0.5;" width="157" x="31" y="211.9063"/><text fill="#000000" font-family="sans-serif" font-size="12" lengthAdjust="spacing" textLength="137" x="41" y="233.0449">Generate source code</text><rect fill="#F1F1F1" height="33.9688" rx="12.5" ry="12.5" style="stroke:#181818;stroke-width:0.5;" width="184" x="17.5" y="265.875"/><text fill="#000000" font-family="sans-serif" font-size="12" lengthAdjust="spacing" textLength="164" x="27.5" y="287.0137">Generate acceptance tests</text><rect fill="#F1F1F1" height="33.9688" rx="12.5" ry="12.5" style="stroke:#181818;stroke-width:0.5;" width="46" x="86.5" y="319.8438"/><text fill="#000000" font-family="sans-serif" font-size="12" lengthAdjust="spacing" textLength="26" x="96.5" y="340.9824">Test</text><rect fill="#F1F1F1" height="33.9688" rx="12.5" ry="12.5" style="stroke:#181818;stroke-width:0.5;" width="88" x="65.5" y="434.6172"/><text fill="#000000" font-family="sans-serif" font-size="12" lengthAdjust="spacing" textLength="68" x="75.5" y="455.7559">Suggest fix</text><rect fill="#F1F1F1" height="33.9688" rx="12.5" ry="12.5" style="stroke:#181818;stroke-width:0.5;" width="118" x="50.5" y="488.5859"/><text fill="#000000" font-family="sans-serif" font-size="12" lengthAdjust="spacing" textLength="98" x="60.5" y="509.7246">Fix source code</text><rect fill="#F1F1F1" height="33.9688" rx="12.5" ry="12.5" style="stroke:#181818;stroke-width:0.5;" width="46" x="86.5" y="542.5547"/><text fill="#000000" font-family="sans-serif" font-size="12" lengthAdjust="spacing" textLength="26" x="96.5" y="563.6934">Test</text><polygon fill="#F1F1F1" points="76,373.8125,143,373.8125,155,385.8125,143,397.8125,76,397.8125,64,385.8125,76,373.8125" style="stroke:#181818;stroke-width:0.5;"/><text fill="#000000" font-family="sans-serif" font-size="11" lengthAdjust="spacing" textLength="21" x="113.5" y="408.0229">yes</text><text fill="#000000" font-family="sans-serif" font-size="11" lengthAdjust="spacing" textLength="67" x="76" y="389.6206">Test failed?</text><text fill="#000000" font-family="sans-serif" font-size="11" lengthAdjust="spacing" textLength="14" x="50" y="383.2183">no</text><ellipse cx="27.5" cy="432.8125" fill="none" rx="11" ry="11" style="stroke:#222222;stroke-width:1.0;"/><ellipse cx="27.5" cy="432.8125" fill="#222222" rx="6" ry="6" style="stroke:#111111;stroke-width:1.0;"/><line style="stroke:#181818;stroke-width:1.0;" x1="109.5" x2="109.5" y1="30" y2="50"/><polygon fill="#181818" points="105.5,40,109.5,50,113.5,40,109.5,44" style="stroke:#181818;stroke-width:1.0;"/><line style="stroke:#181818;stroke-width:1.0;" x1="109.5" x2="109.5" y1="83.9688" y2="103.9688"/><polygon fill="#181818" points="105.5,93.9688,109.5,103.9688,113.5,93.9688,109.5,97.9688" style="stroke:#181818;stroke-width:1.0;"/><line style="stroke:#181818;stroke-width:1.0;" x1="109.5" x2="109.5" y1="137.9375" y2="157.9375"/><polygon fill="#181818" points="105.5,147.9375,109.5,157.9375,113.5,147.9375,109.5,151.9375" style="stroke:#181818;stroke-width:1.0;"/><line style="stroke:#181818;stroke-width:1.0;" x1="109.5" x2="109.5" y1="191.9063" y2="211.9063"/><polygon fill="#181818" points="105.5,201.9063,109.5,211.9063,113.5,201.9063,109.5,205.9063" style="stroke:#181818;stroke-width:1.0;"/><line style="stroke:#181818;stroke-width:1.0;" x1="109.5" x2="109.5" y1="245.875" y2="265.875"/><polygon fill="#181818" points="105.5,255.875,109.5,265.875,113.5,255.875,109.5,259.875" style="stroke:#181818;stroke-width:1.0;"/><line style="stroke:#181818;stroke-width:1.0;" x1="109.5" x2="109.5" y1="299.8438" y2="319.8438"/><polygon fill="#181818" points="105.5,309.8438,109.5,319.8438,113.5,309.8438,109.5,313.8438" style="stroke:#181818;stroke-width:1.0;"/><line style="stroke:#181818;stroke-width:1.0;" x1="109.5" x2="109.5" y1="468.5859" y2="488.5859"/><polygon fill="#181818" points="105.5,478.5859,109.5,488.5859,113.5,478.5859,109.5,482.5859" style="stroke:#181818;stroke-width:1.0;"/><line style="stroke:#181818;stroke-width:1.0;" x1="109.5" x2="109.5" y1="522.5547" y2="542.5547"/><polygon fill="#181818" points="105.5,532.5547,109.5,542.5547,113.5,532.5547,109.5,536.5547" style="stroke:#181818;stroke-width:1.0;"/><line style="stroke:#181818;stroke-width:1.0;" x1="109.5" x2="109.5" y1="397.8125" y2="434.6172"/><polygon fill="#181818" points="105.5,424.6172,109.5,434.6172,113.5,424.6172,109.5,428.6172" style="stroke:#181818;stroke-width:1.0;"/><line style="stroke:#181818;stroke-width:1.0;" x1="109.5" x2="109.5" y1="576.5234" y2="586.5234"/><line style="stroke:#181818;stroke-width:1.0;" x1="109.5" x2="180.5" y1="586.5234" y2="586.5234"/><polygon fill="#181818" points="176.5,497.168,180.5,487.168,184.5,497.168,180.5,493.168" style="stroke:#181818;stroke-width:1.0;"/><line style="stroke:#181818;stroke-width:1.0;" x1="180.5" x2="180.5" y1="385.8125" y2="586.5234"/><line style="stroke:#181818;stroke-width:1.0;" x1="180.5" x2="155" y1="385.8125" y2="385.8125"/><polygon fill="#181818" points="165,381.8125,155,385.8125,165,389.8125,161,385.8125" style="stroke:#181818;stroke-width:1.0;"/><line style="stroke:#181818;stroke-width:1.0;" x1="64" x2="27.5" y1="385.8125" y2="385.8125"/><line style="stroke:#181818;stroke-width:1.0;" x1="27.5" x2="27.5" y1="385.8125" y2="421.8125"/><polygon fill="#181818" points="23.5,411.8125,27.5,421.8125,31.5,411.8125,27.5,415.8125" style="stroke:#181818;stroke-width:1.0;"/><line style="stroke:#181818;stroke-width:1.0;" x1="109.5" x2="109.5" y1="353.8125" y2="373.8125"/><polygon fill="#181818" points="105.5,363.8125,109.5,373.8125,113.5,363.8125,109.5,367.8125" style="stroke:#181818;stroke-width:1.0;"/><!--SRC=[LOr13e9034NtSuekuGgmSATxzG9Dfs0JxP1f9yBj7K4JwARz_-VzccFs4BehOmIRc6GGGfUareVkmiePdK7KEGz8335HUR7wFYqg3ixc1yPIoHMW57bl8n5FZbgZFtAlkm_lXpmPcg-00UiTJos8GREmjG7gTBSoZciiSxyvPvcFZrPtAsIDlqvDRGZcQVe0]--></g></svg>