<?xml version="1.0" encoding="windows-1252" standalone="no"?>
<svg xmlns="http://www.w3.org/2000/svg" xmlns:xlink="http://www.w3.org/1999/xlink" contentStyleType="text/css" height="190px" preserveAspectRatio="none" style="width:210px;height:190px;background:#FFFFFF;" version="1.1" viewBox="0 0 210 190" width="210px" zoomAndPan="magnify"><defs/><g><ellipse cx="105" cy="20" fill="#222222" rx="10" ry="10" style="stroke:#222222;stroke-width:1.0;"/><rect fill="#F1F1F1" height="33.9688" rx="12.5" ry="12.5" style="stroke:#181818;stroke-width:0.5;" width="149" x="30.5" y="50"/><text fill="#000000" font-family="sans-serif" font-size="12" lengthAdjust="spacing" textLength="129" x="40.5" y="71.1387">Read change request</text><rect fill="#F1F1F1" height="33.9688" rx="12.5" ry="12.5" style="stroke:#181818;stroke-width:0.5;" width="188" x="11" y="103.9688"/><text fill="#000000" font-family="sans-serif" font-size="12" lengthAdjust="spacing" textLength="168" x="21" y="125.1074">Modify source code &amp; tests</text><ellipse cx="105" cy="168.9375" fill="none" rx="11" ry="11" style="stroke:#222222;stroke-width:1.0;"/><ellipse cx="105" cy="168.9375" fill="#222222" rx="6" ry="6" style="stroke:#111111;stroke-width:1.0;"/><line style="stroke:#181818;stroke-width:1.0;" x1="105" x2="105" y1="30" y2="50"/><polygon fill="#181818" points="101,40,105,50,109,40,105,44" style="stroke:#181818;stroke-width:1.0;"/><line style="stroke:#181818;stroke-width:1.0;" x1="105" x2="105" y1="83.9688" y2="103.9688"/><polygon fill="#181818" points="101,93.9688,105,103.9688,109,93.9688,105,97.9688" style="stroke:#181818;stroke-width:1.0;"/><line style="stroke:#181818;stroke-width:1.0;" x1="105" x2="105" y1="137.9375" y2="157.9375"/><polygon fill="#181818" points="101,147.9375,105,157.9375,109,147.9375,105,151.9375" style="stroke:#181818;stroke-width:1.0;"/><!--SRC=[Aov9B2hXuh8AIarCKKZEICnBJrKeIYqiJIqkiUQoyirFoKohL2ZEBorAJbL8paz9LL1JA07A5LjpSHMNv1S00000]--></g></svg>